<svg id="Logo" xmlns="http://www.w3.org/2000/svg" viewBox="0 0 515.76 102.46"><defs><style>.cls-1{fill:#000000;}.cls-2{fill:#000000;}.cls-3{fill:none;stroke:#000000;stroke-miterlimit:10;stroke-width:6px;}</style></defs><title>RevealApp-Logo-NotDefinitive - Only text</title><g id="Livello_4" data-name="Livello 4"><text x="-108.31" y="-72.54"></text><path class="cls-1" d="M108.31,73H127.6q16.14,0,21.87,1.32a24.88,24.88,0,0,1,14,8.47,24.17,24.17,0,0,1,5.4,16,25.87,25.87,0,0,1-3.72,13.92,23.21,23.21,0,0,1-10.63,9.06q-6.91,3.06-19.1,3.13l34.83,45h-12l-34.84-45H118v45h-9.68ZM118,82.46v32.92l16.69.13q9.69,0,14.34-1.84a15,15,0,0,0,7.26-5.89,16.44,16.44,0,0,0,2.6-9.06,15.65,15.65,0,0,0-2.64-8.85,14.66,14.66,0,0,0-6.92-5.7q-4.29-1.71-14.25-1.71Z" transform="translate(-108.31 -72.54)"/><path class="cls-1" d="M235.43,146.06l7.77,4.09a42.38,42.38,0,0,1-8.83,12.11,35.13,35.13,0,0,1-11.27,7,39.17,39.17,0,0,1-14.17,2.41q-17.53,0-27.42-11.49a38.77,38.77,0,0,1-9.88-26A38.23,38.23,0,0,1,180,109.92q10.6-13.58,28.4-13.57,18.32,0,29.26,13.89,7.77,9.83,7.91,24.5H181.11q.25,12.48,8,20.46a25.47,25.47,0,0,0,19.06,8,30.58,30.58,0,0,0,10.64-1.9,27.92,27.92,0,0,0,8.8-5.05Q231.21,153.08,235.43,146.06Zm0-19.29A30.45,30.45,0,0,0,230.05,115a25.37,25.37,0,0,0-9.32-7.12,28.6,28.6,0,0,0-12.2-2.7A26.29,26.29,0,0,0,190.4,112q-5.53,4.94-8.37,14.81Z" transform="translate(-108.31 -72.54)"/><path class="cls-1" d="M244,98.2h9.81l24,52.22L301.59,98.2h9.87l-32.79,71.63H277Z" transform="translate(-108.31 -72.54)"/><path class="cls-1" d="M373.8,146.06l7.77,4.09a42.38,42.38,0,0,1-8.83,12.11,35.13,35.13,0,0,1-11.27,7,39.17,39.17,0,0,1-14.17,2.41q-17.54,0-27.42-11.49a38.77,38.77,0,0,1-9.88-26,38.29,38.29,0,0,1,8.37-24.29Q329,96.35,346.77,96.35q18.32,0,29.26,13.89,7.77,9.83,7.91,24.5H319.48q.25,12.48,8,20.46a25.43,25.43,0,0,0,19.05,8,30.58,30.58,0,0,0,10.64-1.9,27.92,27.92,0,0,0,8.8-5.05Q369.58,153.08,373.8,146.06Zm0-19.29A30.59,30.59,0,0,0,368.43,115a25.49,25.49,0,0,0-9.33-7.12,28.57,28.57,0,0,0-12.2-2.7A26.29,26.29,0,0,0,328.77,112q-5.53,4.94-8.37,14.81Z" transform="translate(-108.31 -72.54)"/><path class="cls-2" d="M594.41,100.2v13.16a40.11,40.11,0,0,0-6.34-7,29.84,29.84,0,0,1,5.59,7.54c6.85,13.28,6.64,30.79-1,43.7-5.19,8.75-13.5,13.72-22.73,15.83a34,34,0,0,0,11.51-3.32,39.39,39.39,0,0,0,13-10.6v12.31h9.09V100.2Z" transform="translate(-108.31 -72.54)"/><path class="cls-1" d="M614.86,72.54h9.22v99.29h-9.22Z" transform="translate(-108.31 -72.54)"/></g><g id="Livello_3" data-name="Livello 3"><rect class="cls-3" x="282.41" y="25.46" width="207.78" height="74" rx="37" ry="37"/><g id="surface1"><path class="cls-2" d="M436.73,142.85a16.76,16.76,0,1,0-5.16,4.76l12.37,12.29a3.51,3.51,0,0,0,5.1-4.83l-.13-.13ZM423,144a10.82,10.82,0,1,1,10.81-10.84A10.83,10.83,0,0,1,423,144Z" transform="translate(-108.31 -72.54)"/></g></g></svg>